<?xml version="1.0" encoding="UTF-8"?>
<svg version="1.1" xmlns="http://www.w3.org/2000/svg" width="286" height="349">
<path d="M0 0 C1.23169922 0.86625 1.23169922 0.86625 2.48828125 1.75 C21.66555575 16.18935963 36.03970306 34.85885247 47 56 C47.90685547 57.7325 47.90685547 57.7325 48.83203125 59.5 C57.4422332 76.91476512 63.09460991 95.81809213 66 115 C66.11569336 115.76022461 66.23138672 116.52044922 66.35058594 117.30371094 C72.43177281 159.47502762 65.40665918 203.53890491 45 241 C44.45859375 242.0209375 43.9171875 243.041875 43.359375 244.09375 C26.11235207 275.23885937 -1.81020164 300.56352351 -36 311.375 C-37.99427973 311.93736211 -39.99391408 312.48132662 -42 313 C-42.80824219 313.21269531 -43.61648437 313.42539062 -44.44921875 313.64453125 C-74.71720006 320.98702584 -106.75669858 313.88960785 -133 298 C-136.85062556 295.53101081 -140.44537979 292.87706814 -144 290 C-144.55284668 289.55253418 -145.10569336 289.10506836 -145.67529297 288.64404297 C-163.34489287 274.22391382 -176.5088504 257.18204406 -187 237 C-187.3412793 236.35933594 -187.68255859 235.71867187 -188.03417969 235.05859375 C-200.49721448 211.44442256 -207.3390073 183.66961863 -208 157 C-208.0306958 155.86111328 -208.0306958 155.86111328 -208.06201172 154.69921875 C-209.25857653 103.83038073 -194.35721626 54.37762862 -159 17 C-158.18144531 16.11699219 -157.36289063 15.23398437 -156.51953125 14.32421875 C-114.91359194 -29.12541063 -48.88239574 -34.69472955 0 0 Z " fill="#EFCB33" transform="translate(213,28)"/>
<path d="M0 0 C2.92137389 1.30116867 4.72019936 2.60221194 6.8125 5 C22.36584478 20.88356442 45.5220587 28.91050256 66.44140625 34.64453125 C67.26805786 34.87257446 68.09470947 35.10061768 68.94641113 35.33557129 C70.96386054 35.89188278 72.9818725 36.44615348 75 37 C75.09385903 51.73501085 75.16418121 66.46998159 75.20724869 81.20523167 C75.22778615 88.04862586 75.25573556 94.89183323 75.30175781 101.73510742 C75.34621386 108.34870386 75.36918933 114.96215837 75.37950897 121.57591057 C75.38685604 124.0894773 75.40120221 126.60303438 75.42292023 129.11651802 C75.53235615 142.31596762 75.6059698 154.49064504 71 167 C70.73547531 167.7394989 70.47095062 168.4789978 70.19841003 169.24090576 C63.63443279 185.9250818 49.63031792 197.78346956 33.84765625 205.42578125 C27.49743871 208.18078855 20.74280051 209.55843575 14 211 C12.98292969 211.29197266 12.98292969 211.29197266 11.9453125 211.58984375 C-5.03824971 215.1707153 -25.17245899 209.22878961 -39.5703125 200.33203125 C-55.78400592 189.68635295 -66.01490802 173.92022409 -70 155 C-70.3812105 150.93462967 -70.38158911 146.90817959 -70.34057617 142.82739258 C-70.34101425 141.66511139 -70.34145233 140.5028302 -70.34190369 139.30532837 C-70.33983024 135.50155248 -70.31656713 131.69822919 -70.29296875 127.89453125 C-70.28736765 125.24223587 -70.28295223 122.58996486 -70.28010559 119.93766785 C-70.27082583 113.69412253 -70.24626801 107.45073705 -70.21605712 101.20726174 C-70.18238539 94.09229165 -70.16599519 86.97731344 -70.15097082 79.86228335 C-70.11971417 65.24144024 -70.06703397 50.62072236 -70 36 C-69.05413528 35.73241379 -68.10827057 35.46482758 -67.13374329 35.18913269 C-65.8847374 34.83434341 -64.63573151 34.47955414 -63.34887695 34.11401367 C-61.49695488 33.58888435 -61.49695488 33.58888435 -59.60762024 33.05314636 C-38.66033604 26.9381579 -13.5854363 18.19996692 0 0 Z " fill="#30459C" transform="translate(141,70)"/>
<path d="M0 0 C1.05316406 0.35191406 2.10632813 0.70382813 3.19140625 1.06640625 C16.76932677 5.92367888 26.82847768 13.06897265 37 23 C37.79277344 23.71929687 38.58554688 24.43859375 39.40234375 25.1796875 C58.33446522 42.81417674 68.86833025 70.03873764 73.609375 94.95117188 C73.94790424 96.72675776 74.31512175 98.49682831 74.6875 100.265625 C81.5109048 137.98389042 72.51563112 180.6294117 50.8046875 212.19140625 C48.60571413 215.1910511 46.33949188 218.10885512 44 221 C43.30261719 221.86367188 42.60523438 222.72734375 41.88671875 223.6171875 C28.31636673 239.54436482 7.98070805 251.64212646 -13 254 C-36.22790073 255.4943136 -57.14254357 249.30639123 -75 234 C-98.71012425 212.81334796 -113.07178765 184.37397155 -118 153 C-118.20367187 151.8965625 -118.40734375 150.793125 -118.6171875 149.65625 C-125.07256299 110.39341825 -115.97256286 68.26575555 -92.77734375 35.8984375 C-70.7939029 8.20967534 -36.1168602 -12.61304094 0 0 Z M-24 21 C-24.721875 21.969375 -25.44375 22.93875 -26.1875 23.9375 C-37.19311114 36.69166618 -54.79834341 43.98797087 -70.1875 49.8125 C-71.17274658 50.18568359 -72.15799316 50.55886719 -73.1730957 50.94335938 C-78.14264475 52.76716857 -83.06786129 54.2914958 -88.20796204 55.56498718 C-89.29168752 55.83404216 -90.375413 56.10309713 -91.49197865 56.38030529 C-92.31962569 56.58480454 -93.14727274 56.7893038 -94 57 C-94.09380114 72.27381294 -94.16415336 87.54761254 -94.20724869 102.82164955 C-94.22779822 109.91505233 -94.25577136 117.00827524 -94.30175781 124.1015625 C-94.34186071 130.29032281 -94.36748798 136.47895275 -94.37635398 142.66783941 C-94.38152955 145.93923259 -94.39569088 149.2101701 -94.42292023 152.48146439 C-94.76778514 171.62693685 -94.76778514 171.62693685 -90 190 C-89.73547531 190.68064514 -89.47095062 191.36129028 -89.19841003 192.06256104 C-81.54126933 210.08419715 -65.47066761 221.54017954 -48 229 C-41.52196957 231.11307183 -34.81257378 232.59292178 -28 233 C-27.00871094 233.06445312 -26.01742187 233.12890625 -24.99609375 233.1953125 C-4.34944885 233.89997615 14.95144525 226.39392261 30.43359375 212.875 C42.02666443 201.9270749 50.08779653 186.42137677 51.18040848 170.34562492 C51.24444048 167.36911211 51.24757591 164.39876579 51.22705078 161.42163086 C51.22734283 160.29865601 51.22763489 159.17568115 51.22793579 158.01867676 C51.22655062 154.33398514 51.21102765 150.64949973 51.1953125 146.96484375 C51.19157948 144.39937958 51.18873388 141.83391398 51.18673706 139.26844788 C51.17990012 133.22320116 51.16416264 127.17804195 51.14403808 121.1328302 C51.12161142 114.24521753 51.11066871 107.3576012 51.10064721 100.46996105 C51.07979424 86.31326702 51.04466074 72.15663753 51 58 C50.33090103 57.81086029 49.66180206 57.62172058 48.97242737 57.42684937 C45.87705899 56.54823061 42.78425573 55.66088057 39.69140625 54.7734375 C38.11341248 54.32762329 38.11341248 54.32762329 36.50354004 53.87280273 C15.99091067 47.96245098 -3.29722454 39.26851339 -18.609375 24.1875 C-20.87647717 21.81499173 -20.87647717 21.81499173 -24 21 Z " fill="#FDFCFC" transform="translate(165,49)"/>
<path d="M0 0 C26.64000123 21.20022476 41.52376862 50.21306666 49.16796875 82.91015625 C49.52181641 84.36035156 49.52181641 84.36035156 49.8828125 85.83984375 C55.4061622 110.43286065 53.39885299 137.73658946 47.16796875 161.91015625 C46.70197266 163.77607422 46.70197266 163.77607422 46.2265625 165.6796875 C37.08101224 198.28377923 17.46070487 228.02078658 -12.30859375 244.87890625 C-19.91262314 248.85795489 -27.51811142 251.79716768 -35.83203125 253.91015625 C-37.11400391 254.24853516 -37.11400391 254.24853516 -38.421875 254.59375 C-61.09679307 259.65979487 -83.2826229 253.74283922 -102.68701172 241.76513672 C-130.33053759 224.05704097 -149.76739629 193.13149425 -157.21484375 161.4140625 C-158.06498553 157.40914667 -158.8048975 153.39338872 -159.43823242 149.34863281 C-159.71792762 147.61670746 -160.02866304 145.88966904 -160.3605957 144.16699219 C-161.83935008 136.25490078 -162.18044856 128.57490722 -162.14453125 120.53515625 C-162.1396167 119.22313232 -162.13470215 117.9111084 -162.12963867 116.55932617 C-161.75363836 76.09818214 -148.07639265 38.14285815 -120.01953125 8.66015625 C-86.15891694 -23.86736301 -38.11773704 -28.12826113 0 0 Z M-109.83203125 11.91015625 C-110.32300293 12.35875 -110.81397461 12.80734375 -111.31982422 13.26953125 C-119.07095749 20.42820555 -125.21612664 27.93943222 -130.83203125 36.91015625 C-131.86457031 38.54404297 -131.86457031 38.54404297 -132.91796875 40.2109375 C-154.34706554 75.8029431 -157.51384587 119.40687023 -148.28076172 159.29150391 C-147.09256756 163.94128249 -145.55317082 168.43121896 -143.83203125 172.91015625 C-143.55375488 173.65281738 -143.27547852 174.39547852 -142.98876953 175.16064453 C-136.4288979 192.44195048 -127.82108738 206.76738348 -114.83203125 219.91015625 C-114.105 220.709375 -113.37796875 221.50859375 -112.62890625 222.33203125 C-99.69338937 236.22573457 -79.83752911 246.36326613 -60.8125 247.2265625 C-35.22003643 247.78500453 -14.12801013 238.92722772 4.56201172 221.46435547 C30.69835313 196.17035282 42.73491033 157.65773651 43.5090332 122.05810547 C43.8695358 83.96932018 33.2262614 45.75074648 6.16796875 17.91015625 C5.03101563 16.66298828 5.03101563 16.66298828 3.87109375 15.390625 C-9.4814515 1.18718226 -29.32824934 -9.34610889 -49.02734375 -10.36328125 C-72.51515868 -11.05431105 -92.4300725 -4.09863258 -109.83203125 11.91015625 Z " fill="#F2F2F7" transform="translate(197.83203125,56.08984375)"/>
<path d="M0 0 C1.23169922 0.86625 1.23169922 0.86625 2.48828125 1.75 C21.66555575 16.18935963 36.03970306 34.85885247 47 56 C47.90685547 57.7325 47.90685547 57.7325 48.83203125 59.5 C57.4422332 76.91476512 63.09460991 95.81809213 66 115 C66.11569336 115.76022461 66.23138672 116.52044922 66.35058594 117.30371094 C72.43177281 159.47502762 65.40665918 203.53890491 45 241 C44.45859375 242.0209375 43.9171875 243.041875 43.359375 244.09375 C26.11235207 275.23885937 -1.81020164 300.56352351 -36 311.375 C-37.99427973 311.93736211 -39.99391408 312.48132662 -42 313 C-42.80824219 313.21269531 -43.61648437 313.42539062 -44.44921875 313.64453125 C-74.71720006 320.98702584 -106.75669858 313.88960785 -133 298 C-136.85062556 295.53101081 -140.44537979 292.87706814 -144 290 C-144.55284668 289.55253418 -145.10569336 289.10506836 -145.67529297 288.64404297 C-163.34489287 274.22391382 -176.5088504 257.18204406 -187 237 C-187.3412793 236.35933594 -187.68255859 235.71867187 -188.03417969 235.05859375 C-200.49721448 211.44442256 -207.3390073 183.66961863 -208 157 C-208.0306958 155.86111328 -208.0306958 155.86111328 -208.06201172 154.69921875 C-209.25857653 103.83038073 -194.35721626 54.37762862 -159 17 C-158.18144531 16.11699219 -157.36289063 15.23398437 -156.51953125 14.32421875 C-114.91359194 -29.12541063 -48.88239574 -34.69472955 0 0 Z M-121 -7 C-121.92184082 -6.52989502 -121.92184082 -6.52989502 -122.86230469 -6.05029297 C-131.3754555 -1.62732212 -138.8082631 3.65562787 -146 10 C-146.85335937 10.7321875 -147.70671875 11.464375 -148.5859375 12.21875 C-175.85166761 36.04480339 -192.1571171 69.13261984 -200.1875 104 C-200.34250977 104.66265869 -200.49751953 105.32531738 -200.65722656 106.00805664 C-203.49328849 119.00667383 -204.40935279 132.10623428 -204.375 145.375 C-204.37512085 146.10312897 -204.3752417 146.83125793 -204.37536621 147.58145142 C-204.33055394 166.73895663 -201.85062162 185.70951847 -196 204 C-195.76974121 204.73814941 -195.53948242 205.47629883 -195.30224609 206.23681641 C-182.95139112 245.40213209 -158.39092874 280.05600491 -121.90722656 300.01123047 C-97.78976328 312.51452364 -67.25221397 316.6399632 -41 309 C-7.54114661 298.19612795 18.14151829 276.40755891 37 247 C37.37398926 246.41879395 37.74797852 245.83758789 38.13330078 245.23876953 C44.5483207 235.09966328 48.90523997 224.23350835 53 213 C53.28649414 212.21995605 53.57298828 211.43991211 53.86816406 210.63623047 C60.01769679 193.56347225 63.48397413 175.1506492 64 157 C64.02046387 156.36562012 64.04092773 155.73124023 64.06201172 155.07763672 C65.50802511 104.13255345 49.5384773 55.32849368 14.74047852 17.74462891 C-5.50629254 -3.37769553 -34.71570242 -18.10025842 -64.12109375 -19.37109375 C-84.63820621 -19.76868725 -102.69978035 -16.37269314 -121 -7 Z " fill="#33469A" transform="translate(213,28)"/>
<path d="M0 0 C3.15020262 1.28341588 5.0775421 3.05245329 7.4296875 5.4609375 C18.89296515 16.69609022 33.05924075 23.10708897 47.875 28.75 C48.79361816 29.10247803 49.71223633 29.45495605 50.65869141 29.81811523 C56.98488983 32.14288141 63.38872875 33.94597146 69.90673828 35.63378906 C70.7835878 35.86260773 71.66043732 36.09142639 72.56385803 36.32717896 C74.70876717 36.88662517 76.85414755 37.44418514 79 38 C79.09386721 53.50004384 79.16418522 69.00006613 79.20724869 84.50032806 C79.22778442 91.69904643 79.2557305 98.89758715 79.30175781 106.09619141 C79.34190367 112.37799445 79.36749794 118.65966872 79.37635398 124.94159651 C79.38152252 128.26117589 79.39564772 131.58009809 79.42292023 134.89961243 C79.60600311 158.1240481 78.07555485 179.35683085 61.10791016 196.9453125 C59.74999013 198.30831145 58.37546006 199.65470354 57 201 C56.04867187 201.99966797 56.04867187 201.99966797 55.078125 203.01953125 C45.85432218 212.05967428 32.22849319 216.82593756 20 220 C18.92492187 220.33644531 18.92492187 220.33644531 17.828125 220.6796875 C-0.73600857 225.93232994 -21.41653705 220.6947105 -38 212 C-54.14856022 202.92842163 -65.98525513 189.53680565 -72.2109375 172.0234375 C-74.50686863 163.22615682 -75.28732456 154.80983844 -75.22705078 145.7355957 C-75.22734283 144.56356094 -75.22763489 143.39152618 -75.22793579 142.18397522 C-75.22655337 138.34783265 -75.2110436 134.51188947 -75.1953125 130.67578125 C-75.1915785 128.00106986 -75.18863485 125.32636921 -75.18673706 122.6516571 C-75.18055023 116.35503069 -75.16417779 110.05847471 -75.14403808 103.76187915 C-75.12159138 96.58643801 -75.11066372 89.4109933 -75.10064721 82.23552573 C-75.07980868 67.49031466 -75.04468782 52.74515857 -75 38 C-73.563822 37.51866033 -72.12741745 37.03799657 -70.69091797 36.55761719 C-69.89104462 36.28987488 -69.09117126 36.02213257 -68.26705933 35.74627686 C-65.56865314 34.85800805 -62.85067332 34.05033621 -60.125 33.25 C-38.52908417 26.57033301 -14.2615947 18.61479218 0 0 Z M0 6 C-0.721875 6.969375 -1.44375 7.93875 -2.1875 8.9375 C-13.19311114 21.69166618 -30.79834341 28.98797087 -46.1875 34.8125 C-47.17274658 35.18568359 -48.15799316 35.55886719 -49.1730957 35.94335938 C-54.14264475 37.76716857 -59.06786129 39.2914958 -64.20796204 40.56498718 C-65.29168752 40.83404216 -66.375413 41.10309713 -67.49197865 41.38030529 C-68.31962569 41.58480454 -69.14727274 41.7893038 -70 42 C-70.09380114 57.27381294 -70.16415336 72.54761254 -70.20724869 87.82164955 C-70.22779822 94.91505233 -70.25577136 102.00827524 -70.30175781 109.1015625 C-70.34186071 115.29032281 -70.36748798 121.47895275 -70.37635398 127.66783941 C-70.38152955 130.93923259 -70.39569088 134.2101701 -70.42292023 137.48146439 C-70.76778514 156.62693685 -70.76778514 156.62693685 -66 175 C-65.73547531 175.68064514 -65.47095062 176.36129028 -65.19841003 177.06256104 C-57.54126933 195.08419715 -41.47066761 206.54017954 -24 214 C-17.52196957 216.11307183 -10.81257378 217.59292178 -4 218 C-3.00871094 218.06445312 -2.01742187 218.12890625 -0.99609375 218.1953125 C19.65055115 218.89997615 38.95144525 211.39392261 54.43359375 197.875 C66.02666443 186.9270749 74.08779653 171.42137677 75.18040848 155.34562492 C75.24444048 152.36911211 75.24757591 149.39876579 75.22705078 146.42163086 C75.22734283 145.29865601 75.22763489 144.17568115 75.22793579 143.01867676 C75.22655062 139.33398514 75.21102765 135.64949973 75.1953125 131.96484375 C75.19157948 129.39937958 75.18873388 126.83391398 75.18673706 124.26844788 C75.17990012 118.22320116 75.16416264 112.17804195 75.14403808 106.1328302 C75.12161142 99.24521753 75.11066871 92.3576012 75.10064721 85.46996105 C75.07979424 71.31326702 75.04466074 57.15663753 75 43 C74.33090103 42.81086029 73.66180206 42.62172058 72.97242737 42.42684937 C69.87705899 41.54823061 66.78425573 40.66088057 63.69140625 39.7734375 C62.11341248 39.32762329 62.11341248 39.32762329 60.50354004 38.87280273 C39.99091067 32.96245098 20.70277546 24.26851339 5.390625 9.1875 C3.12352283 6.81499173 3.12352283 6.81499173 0 6 Z " fill="#EDCA38" transform="translate(141,64)"/>
<path d="M0 0 C3.63 0 7.26 0 11 0 C11.00410889 0.76965088 11.00821777 1.53930176 11.01245117 2.33227539 C10.91410515 23.2652736 10.91410515 23.2652736 17 43 C17.34804687 43.72574219 17.69609375 44.45148438 18.0546875 45.19921875 C22.27520508 52.30016256 31.59851073 57.3377893 39.37109375 59.5625 C52.42116689 61.73428037 66.24327802 60.11959226 77.296875 52.38671875 C85.79193362 45.46987056 89.45771838 35.69495929 91 25 C91.13909895 22.98380951 91.2435316 20.96498126 91.31640625 18.9453125 C91.35830078 17.83671875 91.40019531 16.728125 91.44335938 15.5859375 C91.48267578 14.44382813 91.52199219 13.30171875 91.5625 12.125 C91.62727539 10.37703125 91.62727539 10.37703125 91.69335938 8.59375 C91.79901563 5.72929158 91.89997099 2.86466045 92 0 C95.63 0 99.26 0 103 0 C104.15198364 41.69540801 104.15198364 41.69540801 88.99609375 58.08984375 C77.54799091 69.04507328 63.50147731 73.48558649 47.91796875 73.2109375 C33.08769573 72.41249807 21.09412144 65.69622693 11 55 C0.9162197 42.49100672 -0.34391629 28.431335 -0.125 12.8125 C-0.11597656 11.57435547 -0.10695313 10.33621094 -0.09765625 9.06054688 C-0.07433276 6.04015489 -0.04160477 3.02018601 0 0 Z " fill="#F7F8FA" transform="translate(91,195)"/>
<path d="M0 0 C26.64000123 21.20022476 41.52376862 50.21306666 49.16796875 82.91015625 C49.52181641 84.36035156 49.52181641 84.36035156 49.8828125 85.83984375 C55.4061622 110.43286065 53.39885299 137.73658946 47.16796875 161.91015625 C46.70197266 163.77607422 46.70197266 163.77607422 46.2265625 165.6796875 C37.08101224 198.28377923 17.46070487 228.02078658 -12.30859375 244.87890625 C-19.91262314 248.85795489 -27.51811142 251.79716768 -35.83203125 253.91015625 C-37.11400391 254.24853516 -37.11400391 254.24853516 -38.421875 254.59375 C-61.09679307 259.65979487 -83.2826229 253.74283922 -102.68701172 241.76513672 C-130.33053759 224.05704097 -149.76739629 193.13149425 -157.21484375 161.4140625 C-158.06498553 157.40914667 -158.8048975 153.39338872 -159.43823242 149.34863281 C-159.71792762 147.61670746 -160.02866304 145.88966904 -160.3605957 144.16699219 C-161.83935008 136.25490078 -162.18044856 128.57490722 -162.14453125 120.53515625 C-162.1396167 119.22313232 -162.13470215 117.9111084 -162.12963867 116.55932617 C-161.75363836 76.09818214 -148.07639265 38.14285815 -120.01953125 8.66015625 C-86.15891694 -23.86736301 -38.11773704 -28.12826113 0 0 Z M-82.83203125 -12.08984375 C-83.89421875 -11.72761719 -84.95640625 -11.36539063 -86.05078125 -10.9921875 C-113.0107423 -0.74323323 -134.15662515 24.16564154 -145.83203125 49.91015625 C-163.94056804 92.06322322 -164.80976606 138.77249593 -147.95703125 181.47265625 C-136.37381063 209.67552048 -115.65608093 235.4702932 -87.0144043 247.50341797 C-76.07489057 251.92897994 -66.73620905 253.25401721 -54.95703125 253.22265625 C-53.75433594 253.23876953 -52.55164063 253.25488281 -51.3125 253.27148438 C-43.66572455 253.27563572 -37.06734475 252.381018 -29.83203125 249.91015625 C-29.14512207 249.68046143 -28.45821289 249.4507666 -27.75048828 249.21411133 C1.24925224 239.02105894 21.86820243 215.95234374 35.16796875 188.91015625 C37.44461057 184.01318122 39.37975962 179.00530955 41.16796875 173.91015625 C41.39468262 173.26578613 41.62139648 172.62141602 41.85498047 171.95751953 C55.67460488 131.93880701 53.33644002 86.58486182 35.33984375 48.27734375 C30.14377269 37.61643934 23.93625609 27.88751555 16.16796875 18.91015625 C15.50539062 18.10320312 14.8428125 17.29625 14.16015625 16.46484375 C3.69088408 4.14123555 -9.7581672 -5.55045323 -24.83203125 -11.33984375 C-25.79278564 -11.7097644 -25.79278564 -11.7097644 -26.77294922 -12.0871582 C-44.52241544 -18.56452589 -65.05997101 -18.19398606 -82.83203125 -12.08984375 Z " fill="#45529B" transform="translate(197.83203125,56.08984375)"/>
<path d="M0 0 C4.01890818 1.21501875 7.69513046 2.36050788 11 5 C11.61523438 7.56860352 11.61523438 7.56860352 11.59375 10.62890625 C11.59117187 11.74716797 11.58859375 12.86542969 11.5859375 14.01757812 C11.55757813 15.18740234 11.52921875 16.35722656 11.5 17.5625 C11.50386719 19.27663086 11.50386719 19.27663086 11.5078125 21.02539062 C11.36647848 33.38505041 8.28354452 44.6094455 -0.3125 53.8125 C-8.69517989 61.70100444 -17.76848874 62.38252796 -28.7890625 62.2109375 C-37.28905712 61.90750005 -43.87275489 58.919981 -50 53 C-58.77146856 42.60793679 -60.60736652 31.56942327 -60.25 18.3125 C-60.23195313 17.02666016 -60.21390625 15.74082031 -60.1953125 14.41601562 C-60.14862885 11.27653995 -60.08316092 8.13868509 -60 5 C-53.375 1 -53.375 1 -50 1 C-49.98541748 1.66418945 -49.97083496 2.32837891 -49.95581055 3.01269531 C-50.46738656 25.50526486 -50.46738656 25.50526486 -41 45 C-33.5652732 49.81070558 -24.92301295 50.16312943 -16.4140625 48.4921875 C-11.45054764 47.05755032 -8.06833889 45.29567445 -5 41 C-1.01177172 32.03450682 -0.35730831 23.45652429 -0.25 13.75 C-0.22175425 12.40751519 -0.19181529 11.0650649 -0.16015625 9.72265625 C-0.09020783 6.48171265 -0.03714036 3.2414571 0 0 Z " fill="#F9F9FB" transform="translate(167,190)"/>
<path d="M0 0 C0.04646624 8.85829932 0.08194153 17.71655629 0.10362434 26.57495117 C0.11403422 30.68884607 0.12814198 34.8026572 0.15087891 38.91650391 C0.17270748 42.89115211 0.18458963 46.86572004 0.18975449 50.84042358 C0.19343234 52.35217552 0.20061403 53.86392337 0.21146011 55.37564087 C0.30098639 68.37809694 -0.94973786 79.22109153 -9.1875 89.8125 C-18.66492376 97.18382959 -29.11884692 99.99369644 -41 99 C-45.06605632 98.20155761 -49.02971636 97.18263768 -53 96 C-52.27758802 91.88295306 -50.97646289 88.69512628 -49 85 C-48.13375 85.165 -47.2675 85.33 -46.375 85.5 C-38.24874611 86.60887782 -28.86985104 87.78048526 -21.609375 83.3125 C-15.43449294 78.27667385 -13.45891394 71.630588 -12 64 C-11.6727333 59.47325252 -11.74488439 54.98450927 -11.83984375 50.44921875 C-11.85167244 47.86914926 -11.86137583 45.2890693 -11.86914062 42.70898438 C-11.89600693 38.68125663 -11.93446308 34.65559746 -12.0168457 30.62866211 C-12.09474887 26.71436571 -12.09275492 22.80180848 -12.08984375 18.88671875 C-12.12899399 17.68351486 -12.16814423 16.48031097 -12.20848083 15.24064636 C-12.17978481 11.87090716 -12.07081703 9.19798594 -11 6 C-8.23358039 3.39777818 -4.0333769 0 0 0 Z " fill="#F9F9FB" transform="translate(131,89)"/>
<path d="M0 0 C4.0184413 1.2148776 7.70644296 2.34644428 11 5 C11.61231995 7.64723206 11.61231995 7.64723206 11.59594727 10.87329102 C11.6026796 12.08207413 11.60941193 13.29085724 11.61634827 14.53627014 C11.5998674 15.84559006 11.58338654 17.15490997 11.56640625 18.50390625 C11.56936819 19.86572624 11.57510246 21.22754277 11.58348083 22.58934021 C11.60424279 26.91394868 11.58459046 31.23793286 11.5625 35.5625 C11.54131032 40.55281001 11.53706177 45.54246123 11.56300163 50.53275871 C11.56632675 52.51891673 11.54476667 54.50506705 11.52259827 56.49110413 C11.54627916 64.63250293 12.01293355 72.662858 17.77955627 78.93580627 C24.82601033 85.34230423 30.69092277 85.38741701 40 85 C42.69867209 84.76341508 45.32205735 84.42006944 48 84 C52 90.5 52 90.5 52 95 C39.42172827 98.74671924 27.82530263 99.86948215 15.77734375 93.8984375 C8.12965187 89.46706463 3.16416432 82.69590629 0.45729065 74.32086182 C-0.16437809 71.16574102 -0.11914785 68.15257178 -0.11352539 64.93652344 C-0.11367142 64.23368225 -0.11381744 63.53084106 -0.1139679 62.80670166 C-0.11327299 60.49089437 -0.10550038 58.17516819 -0.09765625 55.859375 C-0.09579057 54.25083459 -0.09436737 52.64229362 -0.09336853 51.03375244 C-0.08955516 46.80544458 -0.07973495 42.57717121 -0.06866455 38.34887695 C-0.05842506 34.03206855 -0.05386547 29.71525456 -0.04882812 25.3984375 C-0.03811162 16.93227586 -0.02104937 8.46614222 0 0 Z " fill="#F8F8FB" transform="translate(155,90)"/>
<path d="M0 0 C28.64512269 23.97770653 44.11568545 58.86134002 47.625 95.70703125 C49.71742472 122.51027865 47.314363 152.99003183 34.9375 177.25 C34.61910156 177.89340332 34.30070313 178.53680664 33.97265625 179.19970703 C27.25160509 192.7372089 19.32602664 204.21575141 8.9375 215.25 C8.38707031 215.86488281 7.83664063 216.47976563 7.26953125 217.11328125 C-7.07115291 232.51623831 -28.16601458 241.20148971 -48.90234375 242.48828125 C-73.07942584 243.1474422 -93.13030662 233.59105802 -110.921875 217.6953125 C-133.03754527 196.64169419 -145.49972132 168.11941629 -150.0625 138.25 C-150.17819336 137.5182959 -150.29388672 136.7865918 -150.41308594 136.03271484 C-156.49394748 96.38080609 -148.26989922 53.83953415 -124.47998047 21.12719727 C-111.48046709 3.92954806 -93.39774383 -11.41618904 -72.0625 -16.75 C-71.33546875 -16.95238281 -70.6084375 -17.15476563 -69.859375 -17.36328125 C-45.16829661 -23.37253377 -19.65506951 -15.1430567 0 0 Z M-107.0625 5.25 C-107.55347168 5.69859375 -108.04444336 6.1471875 -108.55029297 6.609375 C-116.30142624 13.7680493 -122.44659539 21.27927597 -128.0625 30.25 C-129.09503906 31.88388672 -129.09503906 31.88388672 -130.1484375 33.55078125 C-151.57753429 69.14278685 -154.74431462 112.74671398 -145.51123047 152.63134766 C-144.32303631 157.28112624 -142.78363957 161.77106271 -141.0625 166.25 C-140.78422363 166.99266113 -140.50594727 167.73532227 -140.21923828 168.50048828 C-133.65936665 185.78179423 -125.05155613 200.10722723 -112.0625 213.25 C-111.33546875 214.04921875 -110.6084375 214.8484375 -109.859375 215.671875 C-96.92385812 229.56557832 -77.06799786 239.70310988 -58.04296875 240.56640625 C-32.45050518 241.12484828 -11.35847888 232.26707147 7.33154297 214.80419922 C33.46788438 189.51019657 45.50444158 150.99758026 46.27856445 115.39794922 C46.63906705 77.30916393 35.99579265 39.09059023 8.9375 11.25 C7.80054688 10.00283203 7.80054688 10.00283203 6.640625 8.73046875 C-6.71192025 -5.47297399 -26.55871809 -16.00626514 -46.2578125 -17.0234375 C-69.74562743 -17.7144673 -89.66054125 -10.75878883 -107.0625 5.25 Z " fill="#4959A4" transform="translate(195.0625,62.75)"/>
<path d="M0 0 C2.92062621 1.30924623 5.13468341 2.37029398 7 5 C7.28064041 7.8794872 7.37880893 10.54010612 7.34057617 13.41870117 C7.34101425 14.27745346 7.34145233 15.13620575 7.34190369 16.02098083 C7.33981223 18.86187407 7.31646443 21.7021785 7.29296875 24.54296875 C7.28737406 26.51165952 7.28310337 28.48035447 7.28010559 30.4490509 C7.2686468 35.63263464 7.23917066 40.81596651 7.20599365 45.99945068 C7.17531508 51.28801059 7.16160499 56.57661115 7.14648438 61.86523438 C7.11430201 72.24360029 7.06309311 82.62177921 7 93 C3.37 93 -0.26 93 -4 93 C-4.09267962 81.6126486 -4.1637548 70.22538692 -4.20724869 58.83773518 C-4.2281236 53.54997244 -4.25643978 48.26246774 -4.30175781 42.97485352 C-4.34521856 37.87201081 -4.36913783 32.76941631 -4.37950897 27.66640282 C-4.3868999 25.71952596 -4.40133266 23.77266269 -4.42292023 21.82589149 C-4.45195721 19.09887968 -4.45595588 16.37289348 -4.45410156 13.64575195 C-4.47567322 12.43841904 -4.47567322 12.43841904 -4.49768066 11.20669556 C-4.46059905 6.16695826 -3.58699695 3.56520491 0 0 Z " fill="#F3F3F7" transform="translate(141,82)"/>
<path d="M0 0 C1.98 0 3.96 0 6 0 C5.01 0.495 5.01 0.495 4 1 C4 4.96 4 8.92 4 13 C5.32 13 6.64 13 8 13 C8.66 9.04 9.32 5.08 10 1 C12.39574961 0.69563433 14.78544825 0.43105687 17.1875 0.1875 C17.86103516 0.09791016 18.53457031 0.00832031 19.22851562 -0.08398438 C23.21040914 -0.45303792 24.7580839 -0.18389428 27.98046875 2.265625 C30 5 30 5 30.125 8.5625 C28.76032291 12.73234666 27.88944224 13.97424883 24 16 C20.96733964 16.30986982 18.03568012 16.23809256 15 16 C15.66 15.67 16.32 15.34 17 15 C17 10.71 17 6.42 17 2 C15.35 2 13.7 2 12 2 C11.97421875 2.75925781 11.9484375 3.51851563 11.921875 4.30078125 C11.86515625 5.29464844 11.8084375 6.28851563 11.75 7.3125 C11.68039063 8.79169922 11.68039063 8.79169922 11.609375 10.30078125 C11 13 11 13 9.1171875 14.87109375 C7 16 7 16 4.375 15.75 C2 15 2 15 0 14 C0 9.38 0 4.76 0 0 Z " fill="#D2B44F" transform="translate(127,318)"/>
<path d="M0 0 C4.92680554 0.11807159 8.07695761 0.25002805 12 3.4375 C14.95616899 7.22509152 15.20355255 9.21651517 15 14 C14 15 14 15 11.3125 15.3125 C7.16409788 14.92114131 5.20166443 13.61954362 2 11 C-0.58629613 7.59079146 -0.15980561 4.15494595 0 0 Z " fill="#E8C63A" transform="translate(127,200)"/>
<path d="M0 0 C5.70939788 -0.45675183 8.55127459 0.37894444 13 4 C15.4294516 7.6441774 15.16179575 9.71241272 15 14 C7.2130066 14.91611687 7.2130066 14.91611687 4.32421875 12.734375 C0.68481257 8.31126188 -0.1218102 5.60326936 0 0 Z " fill="#EDC935" transform="translate(127,216)"/>
<path d="M0 0 C-0.43431365 5.42892065 -1.62768839 8.70796704 -5 13 C-8.21451269 14.60725635 -11.43612536 14.05748185 -15 14 C-15.61364554 6.75898264 -15.61364554 6.75898264 -12.625 3.0625 C-8.1481296 -0.45504103 -5.56678145 -0.0897868 0 0 Z " fill="#EDC935" transform="translate(159,216)"/>
<path d="M0 0 C-0.22544633 4.35862913 -0.46489673 7.85851145 -3 11.5 C-6.68201942 14.56834952 -8.58403864 14.52768414 -13.20703125 14.2109375 C-13.79871094 14.14132813 -14.39039063 14.07171875 -15 14 C-15.31658501 9.96354118 -15.4210379 7.67666805 -13.25 4.1875 C-8.91611879 -0.02599563 -6.0400408 -0.23230926 0 0 Z " fill="#ECC936" transform="translate(159,200)"/>
<path d="M0 0 C0.59865471 5.98654709 0.59865471 5.98654709 -1.04296875 8.765625 C-2.83858185 10.93510476 -4.46143928 12.73071964 -7 14 C-9.3329866 14.04022391 -11.66706666 14.04320247 -14 14 C-14.49029622 6.76813075 -14.49029622 6.76813075 -12.125 3.0625 C-8.20365454 -0.74351177 -5.25644418 -0.08478136 0 0 Z " fill="#EFCB33" transform="translate(159,184)"/>
<path d="M0 0 C4.72287233 0.1131843 8.0752618 0.37721713 12.0625 3.0625 C14.68815161 7.04332664 14.39769099 9.30724632 14 14 C6.75898264 14.61364554 6.75898264 14.61364554 3.0625 11.625 C-0.16998406 7.51092937 -0.09640109 5.20565883 0 0 Z " fill="#EFCB33" transform="translate(127,184)"/>
<path d="M0 0 C1.32 1.32 2.64 2.64 4 4 C2.68 6.97 1.36 9.94 0 13 C0.886875 12.649375 1.77375 12.29875 2.6875 11.9375 C6.0956566 10.97292738 7.70432364 10.80989465 11 12 C11.99 13.485 11.99 13.485 13 15 C11.453125 15.8353125 11.453125 15.8353125 9.875 16.6875 C6.2075445 18.77145129 3.16569055 21.22036927 0 24 C-0.66 22.68 -1.32 21.36 -2 20 C0.64 18.02 3.28 16.04 6 14 C2.04 14.66 -1.92 15.32 -6 16 C-4.68 12.7 -3.36 9.4 -2 6 C-3.98 6.99 -3.98 6.99 -6 8 C-4.71937515 6.2925002 -3.38232443 4.62626404 -2 3 C-1.34 3 -0.68 3 0 3 C0 2.01 0 1.02 0 0 Z " fill="#545B92" transform="translate(225,52)"/>
<path d="M0 0 C0.495 1.485 0.495 1.485 1 3 C0.07832031 2.84144531 -0.84335938 2.68289062 -1.79296875 2.51953125 C-15.31743392 0.60975601 -29.48583459 1.10980945 -42.6418457 4.75268555 C-44.41031141 5.23783985 -46.20413854 5.62888374 -48 6 C-48.66 5.34 -49.32 4.68 -50 4 C-34.18735892 -1.105649 -16.38375042 -5.65984105 0 0 Z " fill="#46539A" transform="translate(161,39)"/>
<path d="M0 0 C1.32 0.33 2.64 0.66 4 1 C3.34 2.98 2.68 4.96 2 7 C2.99 6.67 3.98 6.34 5 6 C5 4.35 5 2.7 5 1 C6.32 1.33 7.64 1.66 9 2 C9.625 4.375 9.625 4.375 10 7 C9.34 7.66 8.68 8.32 8 9 C8.165 9.66 8.33 10.32 8.5 11 C8.665 11.66 8.83 12.32 9 13 C7 15 7 15 5.125 15.23046875 C4.42375 15.21628906 3.7225 15.20210938 3 15.1875 C2.29875 15.18105469 1.5975 15.17460937 0.875 15.16796875 C-1 15 -1 15 -3 14 C-2.48594831 9.03083364 -1.76615118 4.70973649 0 0 Z " fill="#4D5695" transform="translate(113,315)"/>
<path d="M0 0 C1.98 0 3.96 0 6 0 C5.01 0.495 5.01 0.495 4 1 C4 4.96 4 8.92 4 13 C5.32 13 6.64 13 8 13 C8.66 9.04 9.32 5.08 10 1 C13.3 1 16.6 1 20 1 C20.495 7.93 20.495 7.93 21 15 C20.01 15 19.02 15 18 15 C16.99503148 11.98509443 16.89664697 9.95818308 16.9375 6.8125 C16.94652344 5.91144531 16.95554688 5.01039063 16.96484375 4.08203125 C16.97644531 3.39496094 16.98804688 2.70789063 17 2 C15.35 2 13.7 2 12 2 C11.97421875 2.75925781 11.9484375 3.51851563 11.921875 4.30078125 C11.86515625 5.29464844 11.8084375 6.28851563 11.75 7.3125 C11.68039063 8.79169922 11.68039063 8.79169922 11.609375 10.30078125 C11 13 11 13 9.1171875 14.87109375 C7 16 7 16 4.375 15.75 C2 15 2 15 0 14 C0 9.38 0 4.76 0 0 Z " fill="#5E628F" transform="translate(127,318)"/>
<path d="M0 0 C2.0625 0.4375 2.0625 0.4375 4 1 C4.33 2.32 4.66 3.64 5 5 C7.97 4.34 10.94 3.68 14 3 C13.34 4.65 12.68 6.3 12 8 C9.36 8.33 6.72 8.66 4 9 C4 9.66 4 10.32 4 11 C6.97 11.495 6.97 11.495 10 12 C9.67 13.32 9.34 14.64 9 16 C4 14.33333333 -1 12.66666667 -6 11 C-5.34 9.35 -4.68 7.7 -4 6 C-3.67 6.66 -3.34 7.32 -3 8 C0.02934491 8.65772428 0.02934491 8.65772428 3 9 C2.67 7.68 2.34 6.36 2 5 C0.35 5 -1.3 5 -3 5 C-1.125 1.125 -1.125 1.125 0 0 Z " fill="#565C92" transform="translate(33,95)"/>
<path d="M0 0 C0.66 0.33 1.32 0.66 2 1 C1.34 3.97 0.68 6.94 0 10 C1.093125 9.979375 2.18625 9.95875 3.3125 9.9375 C7 10 7 10 10 11 C10 11.66 10 12.32 10 13 C8.02 13.99 8.02 13.99 6 15 C5.67 14.67 5.34 14.34 5 14 C3.33382885 13.95936168 1.66611905 13.957279 0 14 C1.32 15.32 2.64 16.64 4 18 C2.35 18.99 0.7 19.98 -1 21 C-1.61875 19.9171875 -1.61875 19.9171875 -2.25 18.8125 C-4.49784067 15.19989892 -6.99190143 12.00809857 -10 9 C-8.68 8.34 -7.36 7.68 -6 7 C-5.01 8.32 -4.02 9.64 -3 11 C-2.34 8.69 -1.68 6.38 -1 4 C-1.66 3.67 -2.32 3.34 -3 3 C-2.01 2.01 -1.02 1.02 0 0 Z " fill="#465296" transform="translate(210,289)"/>
<path d="M0 0 C1.2065625 0.0309375 1.2065625 0.0309375 2.4375 0.0625 C3.5625 4.8125 3.5625 4.8125 2.4375 7.0625 C4.0875 7.3925 5.7375 7.7225 7.4375 8.0625 C7.4375 10.3125 7.4375 10.3125 6.4375 13.0625 C3.91082213 14.73448768 1.23813432 15.92055571 -1.5625 17.0625 C-3.45918064 14.21747903 -4.79513478 11.48950115 -6.1875 8.375 C-6.63351563 7.38113281 -7.07953125 6.38726562 -7.5390625 5.36328125 C-7.87679687 4.60402344 -8.21453125 3.84476562 -8.5625 3.0625 C-7.2425 2.7325 -5.9225 2.4025 -4.5625 2.0625 C-2.9125 5.6925 -1.2625 9.3225 0.4375 13.0625 C1.0975 13.0625 1.7575 13.0625 2.4375 13.0625 C2.4375 11.7425 2.4375 10.4225 2.4375 9.0625 C1.4475 8.4025 0.4575 7.7425 -0.5625 7.0625 C-0.5625 5.7425 -0.5625 4.4225 -0.5625 3.0625 C-1.5525 2.4025 -2.5425 1.7425 -3.5625 1.0625 C-2.5625 0.0625 -2.5625 0.0625 0 0 Z " fill="#575C92" transform="translate(181.5625,309.9375)"/>
<path d="M0 0 C0.33 1.32 0.66 2.64 1 4 C3.97 4 6.94 4 10 4 C8.37660195 5.70884005 6.70680947 7.37446717 5 9 C4.34 9 3.68 9 3 9 C2.34 12.3 1.68 15.6 1 19 C0.34 17.68 -0.32 16.36 -1 15 C-3.30088051 11.24189517 -5.26918191 8.39838306 -9 6 C-8.15115234 5.72736328 -8.15115234 5.72736328 -7.28515625 5.44921875 C-6.55167969 5.19785156 -5.81820312 4.94648438 -5.0625 4.6875 C-3.96615234 4.32205078 -3.96615234 4.32205078 -2.84765625 3.94921875 C-0.64067976 3.08759559 -0.64067976 3.08759559 0 0 Z " fill="#3E4D98" transform="translate(143,210)"/>
<path d="M0 0 C2.35210784 2.11689705 2.91810953 3.44041515 3.375 6.5625 C2.91502342 9.55234777 2.38361946 10.1810535 0 12 C-2.91796875 12.73046875 -2.91796875 12.73046875 -6.1875 13.1875 C-7.27417969 13.34605469 -8.36085938 13.50460938 -9.48046875 13.66796875 C-10.31191406 13.77753906 -11.14335937 13.88710937 -12 14 C-12.33 12.02 -12.66 10.04 -13 8 C-11.1746875 8.0309375 -11.1746875 8.0309375 -9.3125 8.0625 C-6.08022678 8.06824116 -3.15065259 7.78766315 0 7 C0 5.68 0 4.36 0 3 C-4.29 3 -8.58 3 -13 3 C-13.33 3.66 -13.66 4.32 -14 5 C-14 3.68 -14 2.36 -14 1 C-3.66246057 -0.42586751 -3.66246057 -0.42586751 0 0 Z " fill="#65668D" transform="translate(31,201)"/>
<path d="M0 0 C2.5625 0.3125 2.5625 0.3125 4.375 1.5 C5.98775784 3.96157776 5.9959014 5.42315736 5.5625 8.3125 C4.375 10.125 4.375 10.125 2.5625 11.3125 C0.0625 11.75 0.0625 11.75 -2.4375 11.3125 C-4.3125 9.625 -4.3125 9.625 -5.4375 7.3125 C-5.14609088 3.23277231 -4.43505664 0.56859701 0 0 Z " fill="#475395" transform="translate(35.4375,236.6875)"/>
<path d="M0 0 C0.66 0 1.32 0 2 0 C4.03993514 4.92984325 5.40652968 8.57960425 5 14 C3.35 14.33 1.7 14.66 0 15 C-1.65 11.04 -3.3 7.08 -5 3 C-4.01 2.34 -3.02 1.68 -2 1 C-1.34 1.33 -0.68 1.66 0 2 C0 1.34 0 0.68 0 0 Z " fill="#ECC837" transform="translate(111,19)"/>
<path d="M0 0 C1.65 0.33 3.3 0.66 5 1 C4.01 1.495 4.01 1.495 3 2 C3 3.98 3 5.96 3 8 C3.99 8.33 4.98 8.66 6 9 C6.94921875 11.28515625 6.94921875 11.28515625 7.6875 14.0625 C8.06455078 15.44115234 8.06455078 15.44115234 8.44921875 16.84765625 C8.63097656 17.55792969 8.81273437 18.26820312 9 19 C7.35 18.67 5.7 18.34 4 18 C3.5359375 16.2984375 3.5359375 16.2984375 3.0625 14.5625 C2.37075469 11.21224901 2.37075469 11.21224901 1 10 C0.34 11.65 -0.32 13.3 -1 15 C-2.32 14.67 -3.64 14.34 -5 14 C-3.35 9.38 -1.7 4.76 0 0 Z " fill="#404E98" transform="translate(174,20)"/>
<path d="M0 0 C5.56818182 0.56818182 5.56818182 0.56818182 7 2 C7.25 5.4375 7.25 5.4375 7 9 C4 11 4 11 1.4375 10.8125 C-1 10 -1 10 -3 7 C-2.6758631 3.67759676 -2.39223697 2.39223697 0 0 Z " fill="#3E4D98" transform="translate(248,237)"/>
<path d="M0 0 C0.99 0.33 1.98 0.66 3 1 C2.01 2.98 1.02 4.96 0 7 C2.97 7.495 2.97 7.495 6 8 C5.01 6.68 4.02 5.36 3 4 C5.97 4.495 5.97 4.495 9 5 C8.34 6.32 7.68 7.64 7 9 C9.97 9.495 9.97 9.495 13 10 C12.67 7.36 12.34 4.72 12 2 C12.99 2.33 13.98 2.66 15 3 C14.85950482 4.47968324 14.71245174 5.95874516 14.5625 7.4375 C14.48128906 8.26121094 14.40007813 9.08492187 14.31640625 9.93359375 C14 12 14 12 13 13 C7.76242091 12.85665573 2.89342839 11.88208784 -2 10 C-1.125 2.25 -1.125 2.25 0 0 Z " fill="#545B92" transform="translate(23,117)"/>
<path d="M0 0 C1.32 0.66 2.64 1.32 4 2 C4 2.33 4 2.66 4 3 C2.35 3.33 0.7 3.66 -1 4 C-1.33 5.32 -1.66 6.64 -2 8 C-1.48050781 7.69964844 -0.96101563 7.39929688 -0.42578125 7.08984375 C5.32024793 3.95661157 5.32024793 3.95661157 8.9375 4.1875 C11 5 11 5 12 6 C12.30867281 9.47256915 12.38701339 11.3872288 10.5 14.375 C10.005 14.91125 9.51 15.4475 9 16 C6.525 15.01 6.525 15.01 4 14 C4 13.67 4 13.34 4 13 C5.98 12.34 7.96 11.68 10 11 C10 10.01 10 9.02 10 8 C9.29875 8.309375 8.5975 8.61875 7.875 8.9375 C4.83786061 10.05992108 2.23556967 10.78898459 -1 11 C-2.9375 9.875 -2.9375 9.875 -4 8 C-3.6875 5.3125 -3.6875 5.3125 -3 3 C-2.01 2.67 -1.02 2.34 0 2 C0 1.34 0 0.68 0 0 Z " fill="#5E6190" transform="translate(42,76)"/>
<path d="M0 0 C4.95 0.33 9.9 0.66 15 1 C12 4 9 7 6 10 C8.97 10.33 11.94 10.66 15 11 C15.33 10.34 15.66 9.68 16 9 C15.67 10.32 15.34 11.64 15 13 C10.38 13 5.76 13 1 13 C2.07597185 7.62014075 3.08314366 6.51512748 7 3 C4.69 3 2.38 3 0 3 C0 2.01 0 1.02 0 0 Z " fill="#565C92" transform="translate(15,178)"/>
<path d="M0 0 C2.475 0.99 2.475 0.99 5 2 C4.401875 2.66 3.80375 3.32 3.1875 4 C0.57574169 7.58183997 -0.58094144 10.81377726 -2 15 C-0.35 15 1.3 15 3 15 C3.66 13.9275 4.32 12.855 5 11.75 C5.37125 11.14671875 5.7425 10.5434375 6.125 9.921875 C7.27624023 7.74520615 7.27624023 7.74520615 7 4 C9.475 4.99 9.475 4.99 12 6 C11.01 6.33 10.02 6.66 9 7 C8.29373761 8.98636298 7.63106429 10.98848259 7 13 C5.75 15.375 5.75 15.375 4 17 C0.82282567 17.46333792 -1.10124887 17.49286352 -3.9375 15.9375 C-5.6955698 12.73160802 -4.86728565 10.46914259 -4 7 C-2.81183196 4.53263491 -1.46905028 2.32204722 0 0 Z " fill="#5D6090" transform="translate(93,305)"/>
<path d="M0 0 C1.32 0.66 2.64 1.32 4 2 C2.68 2.33 1.36 2.66 0 3 C0.37330824 5.72574271 0.79194601 6.80822085 2.84765625 8.703125 C3.57855469 9.21359375 4.30945313 9.7240625 5.0625 10.25 C5.79597656 10.77078125 6.52945313 11.2915625 7.28515625 11.828125 C8.13400391 12.40820312 8.13400391 12.40820312 9 13 C7.68 14.32 6.36 15.64 5 17 C2.03 14.03 -0.94 11.06 -4 8 C-4.99 9.32 -5.98 10.64 -7 12 C-7.66 11.01 -8.32 10.02 -9 9 C-6.03 6.03 -3.06 3.06 0 0 Z " fill="#5A5F91" transform="translate(67,45)"/>
<path d="M0 0 C1.32 0 2.64 0 4 0 C4.8125 2 4.8125 2 5 5 C3.58832428 7.84968868 1.85115239 10.41863524 0 13 C-1.65 12.67 -3.3 12.34 -5 12 C-4.52697604 7.03324843 -3.20706202 3.84847443 0 0 Z " fill="#EECA34" transform="translate(96,308)"/>
<path d="M0 0 C0.66 0 1.32 0 2 0 C5.76470588 10.28571429 5.76470588 10.28571429 5 14 C2.88269813 16.27413905 1.49656188 16.91522114 -1.5625 17.4375 C-4 17 -4 17 -5.546875 15.30078125 C-7.12241195 12.80618107 -7.90330165 10.58805116 -8.6875 7.75 C-8.93886719 6.85796875 -9.19023438 5.9659375 -9.44921875 5.046875 C-9.63097656 4.37140625 -9.81273438 3.6959375 -10 3 C-8.68 3 -7.36 3 -6 3 C-4.68 6.63 -3.36 10.26 -2 14 C-0.68 14 0.64 14 2 14 C1.2812193 6.95792295 1.2812193 6.95792295 0 0 Z " fill="#585D91" transform="translate(113,19)"/>
<path d="M0 0 C0 0.66 0 1.32 0 2 C-6.35599654 3.67177446 -12.31159034 4.33838095 -18.875 4.3125 C-19.71546875 4.32861328 -20.5559375 4.34472656 -21.421875 4.36132812 C-22.22882813 4.36197266 -23.03578125 4.36261719 -23.8671875 4.36328125 C-24.59019043 4.36626221 -25.31319336 4.36924316 -26.05810547 4.37231445 C-28.51760072 3.90076174 -29.4157036 2.8848953 -31 1 C-27.06732611 0.8568968 -23.13462735 0.71449972 -19.2019043 0.57275391 C-17.20685496 0.50069904 -15.21182579 0.42808663 -13.21679688 0.35546875 C-11.33637695 0.28779297 -11.33637695 0.28779297 -9.41796875 0.21875 C-7.68196411 0.1559082 -7.68196411 0.1559082 -5.91088867 0.09179688 C-3.94133398 0.02968561 -1.97053381 0 0 0 Z " fill="#58619C" transform="translate(160,308)"/>
<path d="M0 0 C2.375 -0.125 2.375 -0.125 5 0 C7 2 7 2 7.1953125 3.9453125 C7.13020833 5.96354167 7.06510417 7.98177083 7 10 C5.35 10 3.7 10 2 10 C2.495 9.5875 2.99 9.175 3.5 8.75 C5.43386092 6.87797662 5.43386092 6.87797662 5 3 C4.34 3 3.68 3 3 3 C1.63722914 4.78965547 1.63722914 4.78965547 0.375 7 C-0.07101562 7.7425 -0.51703125 8.485 -0.9765625 9.25 C-1.31429688 9.8275 -1.65203125 10.405 -2 11 C-6.75 10.25 -6.75 10.25 -9 8 C-9.125 5.375 -9.125 5.375 -9 3 C-8.34 4.32 -7.68 5.64 -7 7 C-6.01 7 -5.02 7 -4 7 C-2.68 4.69 -1.36 2.38 0 0 Z " fill="#565B93" transform="translate(264,164)"/>
<path d="M0 0 C0.89203125 0.00902344 1.7840625 0.01804687 2.703125 0.02734375 C3.37859375 0.03894531 4.0540625 0.05054688 4.75 0.0625 C4.42 1.3825 4.09 2.7025 3.75 4.0625 C3.42 3.4025 3.09 2.7425 2.75 2.0625 C1.76 1.7325 0.77 1.4025 -0.25 1.0625 C-0.13623383 3.18813103 -0.00864369 5.3130261 0.125 7.4375 C0.19460937 8.62085938 0.26421875 9.80421875 0.3359375 11.0234375 C0.45217346 14.16812319 0.45217346 14.16812319 2.75 16.0625 C0.77 16.0625 -1.21 16.0625 -3.25 16.0625 C-3.58 11.4425 -3.91 6.8225 -4.25 2.0625 C-7.3245356 2.8388932 -7.3245356 2.8388932 -9.25 5.0625 C-9.25 3.7425 -9.25 2.4225 -9.25 1.0625 C-6.09493858 0.12630187 -3.28413498 -0.0432123 0 0 Z " fill="#505894" transform="translate(135.25,14.9375)"/>
<path d="M0 0 C0.33 1.32 0.66 2.64 1 4 C0.154375 3.938125 -0.69125 3.87625 -1.5625 3.8125 C-5.73619843 4.04015628 -8.25432947 5.20207814 -12 7 C-11.67 8.98 -11.34 10.96 -11 13 C-10.01 13.33 -9.02 13.66 -8 14 C-9.65 13.67 -11.3 13.34 -13 13 C-13.99 9.7 -14.98 6.4 -16 3 C-14.08802961 2.29954544 -12.17019565 1.615081 -10.25 0.9375 C-9.18265625 0.55464844 -8.1153125 0.17179687 -7.015625 -0.22265625 C-4.07719958 -0.98010011 -2.77651052 -1.07151741 0 0 Z " fill="#505893" transform="translate(257,100)"/>
<path d="M0 0 C-2.71683272 4.93054827 -5.66657898 9.46284362 -9 14 C-9.99 12.68 -10.98 11.36 -12 10 C-10.625 7.5 -10.625 7.5 -9 5 C-8.34 5 -7.68 5 -7 5 C-7 4.34 -7 3.68 -7 3 C-9.97 3 -12.94 3 -16 3 C-16 2.34 -16 1.68 -16 1 C-10.63904667 -0.12862175 -5.44693314 -0.09688221 0 0 Z " fill="#525993" transform="translate(247,82)"/>
<path d="M0 0 C4.13621084 3.3810038 7.81316569 6.66590534 11 11 C10.01 11.66 9.02 12.32 8 13 C5.03 10.36 2.06 7.72 -1 5 C-1.99 6.32 -2.98 7.64 -4 9 C-4.8125 7.3125 -4.8125 7.3125 -5 5 C-2.5625 2.25 -2.5625 2.25 0 0 Z " fill="#4B5495" transform="translate(218,281)"/>
<path d="M0 0 C0.33 0 0.66 0 1 0 C1.25 2.8125 1.25 2.8125 1 6 C-0.875 7.875 -0.875 7.875 -3 9 C-3.66 9 -4.32 9 -5 9 C-5 9.66 -5 10.32 -5 11 C-3.68 11.66 -2.36 12.32 -1 13 C-4.63 12.34 -8.26 11.68 -12 11 C-12.33 11.99 -12.66 12.98 -13 14 C-13 12.02 -13 10.04 -13 8 C-11.948125 7.7525 -10.89625 7.505 -9.8125 7.25 C-6.1779442 6.21787462 -3.77322631 4.61009535 -1 2 C-0.67 1.34 -0.34 0.68 0 0 Z " fill="#445196" transform="translate(267,139)"/>
<path d="M0 0 C-1.65334757 3.90791244 -4.26807489 6.78998799 -7 10 C-7.99 11.485 -7.99 11.485 -9 13 C-10.32 11.68 -11.64 10.36 -13 9 C-11.824375 8.1028125 -11.824375 8.1028125 -10.625 7.1875 C-7.85425677 5.08914751 -7.85425677 5.08914751 -6 2 C-6.33 1.34 -6.66 0.68 -7 0 C-4.3333581 -1.33332095 -2.83319697 -0.67102033 0 0 Z " fill="#4C5595" transform="translate(89,302)"/>
<path d="M0 0 C0.12117187 0.99902344 0.24234375 1.99804688 0.3671875 3.02734375 C0.53476563 4.31769531 0.70234375 5.60804688 0.875 6.9375 C1.03742188 8.22527344 1.19984375 9.51304687 1.3671875 10.83984375 C1.57601562 11.88269531 1.78484375 12.92554688 2 14 C2.66 14.33 3.32 14.66 4 15 C1.69 15.33 -0.62 15.66 -3 16 C-3.04898438 15.00097656 -3.09796875 14.00195312 -3.1484375 12.97265625 C-3.22320312 11.68230469 -3.29796875 10.39195312 -3.375 9.0625 C-3.44460937 7.77472656 -3.51421875 6.48695313 -3.5859375 5.16015625 C-3.72257813 4.11730469 -3.85921875 3.07445312 -4 2 C-4.66 1.67 -5.32 1.34 -6 1 C-3.92446352 0.4465236 -2.15634036 0 0 0 Z " fill="#4E5794" transform="translate(164,316)"/>
<path d="M0 0 C0.99 0.99 1.98 1.98 3 3 C1.43870938 7.21548466 -1.58691713 9.22687017 -5 12 C-5.99 13.485 -5.99 13.485 -7 15 C-8.32 13.35 -9.64 11.7 -11 10 C-10.278125 9.5875 -9.55625 9.175 -8.8125 8.75 C-3.17761192 5.41323916 -3.17761192 5.41323916 0 0 Z " fill="#4E5794" transform="translate(65,281)"/>
<path d="M0 0 C2.97 0.33 5.94 0.66 9 1 C5.50817102 4.59452983 1.99299253 7.96185351 -2 11 C-2.99 11 -3.98 11 -5 11 C-5.33 9.35 -5.66 7.7 -6 6 C-5.236875 5.896875 -4.47375 5.79375 -3.6875 5.6875 C-0.82940576 4.95635961 0.15742885 4.23048087 2 2 C1.34 1.34 0.68 0.68 0 0 Z " fill="#4B5595" transform="translate(256,124)"/>
<path d="M0 0 C2.17581687 2.84881728 4.20937999 5.76084088 6.1875 8.75 C6.71730469 9.54921875 7.24710938 10.3484375 7.79296875 11.171875 C8.19128906 11.77515625 8.58960937 12.3784375 9 13 C7.02 13.99 7.02 13.99 5 15 C4.51789063 14.30132812 4.03578125 13.60265625 3.5390625 12.8828125 C2.90742187 11.97273438 2.27578125 11.06265625 1.625 10.125 C0.99851562 9.22007813 0.37203125 8.31515625 -0.2734375 7.3828125 C-1.9298095 4.96505875 -1.9298095 4.96505875 -4 3 C-2.68 2.01 -1.36 1.02 0 0 Z " fill="#445197" transform="translate(80,35)"/>
<path d="M0 0 C1.41764994 0.93601246 2.83407568 1.8738792 4.25 2.8125 C5.03890625 3.33457031 5.8278125 3.85664063 6.640625 4.39453125 C8.81092481 5.87134122 10.91413768 7.40689873 13 9 C11.68 10.32 10.36 11.64 9 13 C8.29875 12.2575 7.5975 11.515 6.875 10.75 C4.02281994 8.02182777 1.3236937 6.08697046 -2 4 C-1.34 2.68 -0.68 1.36 0 0 Z " fill="#475296" transform="translate(225,272)"/>
<path d="M0 0 C4 3 8 6 12 9 C11.34 10.32 10.68 11.64 10 13 C6 10 2 7 -2 4 C-1.34 2.68 -0.68 1.36 0 0 Z " fill="#414F98" transform="translate(51,63)"/>
<path d="M0 0 C1.3357457 3.77371512 0.72408671 6.85831347 0.0625 10.75 C-0.13214844 11.92046875 -0.32679688 13.0909375 -0.52734375 14.296875 C-0.76130859 15.63492188 -0.76130859 15.63492188 -1 17 C-2.32 16.34 -3.64 15.68 -5 15 C-4.93989582 13.06164034 -4.85108283 11.12415509 -4.75 9.1875 C-4.70359375 8.10855469 -4.6571875 7.02960937 -4.609375 5.91796875 C-4 3 -4 3 -1.953125 1.11328125 C-0.98632812 0.56220703 -0.98632812 0.56220703 0 0 Z " fill="#4C5694" transform="translate(202,33)"/>
<path d="M0 0 C0.33 0.66 0.66 1.32 1 2 C3.24231775 2.87640654 3.24231775 2.87640654 5.875 3.5625 C6.75929688 3.81128906 7.64359375 4.06007813 8.5546875 4.31640625 C9.36164062 4.54199219 10.16859375 4.76757812 11 5 C11.99 5.33 12.98 5.66 14 6 C13.67 7.32 13.34 8.64 13 10 C8 8.33333333 3 6.66666667 -2 5 C-1.34 3.35 -0.68 1.7 0 0 Z " fill="#445097" transform="translate(29,101)"/>
<path d="M0 0 C4.63937443 2.149954 4.63937443 2.149954 5.875 5.0625 C6 7 6 7 5 9 C2.69 8.67 0.38 8.34 -2 8 C-2.93423645 4.98968256 -3.04449911 4.13349732 -2 1 C-1.34 0.67 -0.68 0.34 0 0 Z " fill="#525A93" transform="translate(179,21)"/>
<path d="M0 0 C1.32 1.32 2.64 2.64 4 4 C1.44146883 6.04682493 -1.11733804 8.09277891 -3.6875 10.125 C-6.01530847 11.94603379 -6.01530847 11.94603379 -8 14 C-8.66 12.68 -9.32 11.36 -10 10 C-9.36191406 9.52949219 -8.72382812 9.05898438 -8.06640625 8.57421875 C-7.24011719 7.95160156 -6.41382813 7.32898438 -5.5625 6.6875 C-4.73878906 6.07261719 -3.91507813 5.45773437 -3.06640625 4.82421875 C-0.75016363 3.08702303 -0.75016363 3.08702303 0 0 Z " fill="#455196" transform="translate(59,274)"/>
<path d="M0 0 C1.32 0.66 2.64 1.32 4 2 C3.67 5.96 3.34 9.92 3 14 C1.35 14.66 -0.3 15.32 -2 16 C-1.9278125 15.31292969 -1.855625 14.62585938 -1.78125 13.91796875 C-1.6884375 13.01691406 -1.595625 12.11585938 -1.5 11.1875 C-1.4071875 10.29417969 -1.314375 9.40085937 -1.21875 8.48046875 C-0.95607599 5.91694901 -0.95607599 5.91694901 -1 3 C-0.67 2.01 -0.34 1.02 0 0 Z " fill="#4C5694" transform="translate(75,292)"/>
<path d="M0 0 C3.64553172 1.2808625 5.16671013 2.16671013 8 5 C2.72 6.32 -2.56 7.64 -8 9 C-8 7.68 -8 6.36 -8 5 C-6.35 5 -4.7 5 -3 5 C-2.67 4.34 -2.34 3.68 -2 3 C-0.68 3 0.64 3 2 3 C1.34 2.01 0.68 1.02 0 0 Z " fill="#424F97" transform="translate(260,202)"/>
<path d="M0 0 C3.65316671 1.24976756 4.78065836 1.67098753 7 5 C5.51886719 5.41572266 5.51886719 5.41572266 4.0078125 5.83984375 C2.71351203 6.20562432 1.41924281 6.57151549 0.125 6.9375 C-0.52597656 7.11990234 -1.17695313 7.30230469 -1.84765625 7.49023438 C-5.50796485 8.51892693 -5.50796485 8.51892693 -9 10 C-8.67 8.35 -8.34 6.7 -8 5 C-5.03 4.34 -2.06 3.68 1 3 C0.67 2.01 0.34 1.02 0 0 Z " fill="#455196" transform="translate(25,143)"/>
<path d="M0 0 C20.08176101 -0.38993711 20.08176101 -0.38993711 27 2 C27.33 2.99 27.66 3.98 28 5 C27.02417969 4.84273437 26.04835937 4.68546875 25.04296875 4.5234375 C22.26894382 4.12545255 19.53837224 3.89692914 16.73828125 3.7890625 C16.01189453 3.76070312 15.28550781 3.73234375 14.53710938 3.703125 C13.0425836 3.65063946 11.54774375 3.6064925 10.05273438 3.5703125 C5.79622705 3.38805349 3.09180026 3.05101134 0 0 Z " fill="#6F6D91" transform="translate(134,37)"/>
<path d="M0 0 C2 1 2 1 2.8515625 3.14453125 C3.10679687 4.02496094 3.36203125 4.90539062 3.625 5.8125 C3.88539063 6.68519531 4.14578125 7.55789062 4.4140625 8.45703125 C5 11 5 11 5 15 C3.68 15 2.36 15 1 15 C0.49440092 13.56445975 -0.0042749 12.1264798 -0.5 10.6875 C-0.7784375 9.88699219 -1.056875 9.08648437 -1.34375 8.26171875 C-2 6 -2 6 -2 3 C-1.34 2.01 -0.68 1.02 0 0 Z " fill="#455196" transform="translate(155,16)"/>
<path d="M0 0 C1.77108948 1.12459671 3.54186236 2.24969203 5.3125 3.375 C6.29863281 4.00148438 7.28476563 4.62796875 8.30078125 5.2734375 C10.21287929 6.49651613 12.1114034 7.7409356 14 9 C9.58709677 11.08387097 9.58709677 11.08387097 6.8125 10.6875 C5 10 5 10 3 9 C3 8.01 3 7.02 3 6 C2.01 5.34 1.02 4.68 0 4 C0 2.68 0 1.36 0 0 Z " fill="#485396" transform="translate(192,304)"/>
<path d="M0 0 C0.33 0.66 0.66 1.32 1 2 C4.27555608 2.47001033 4.27555608 2.47001033 8.0625 2.625 C9.99802734 2.73714844 9.99802734 2.73714844 11.97265625 2.8515625 C13.47119141 2.92503906 13.47119141 2.92503906 15 3 C14.67 4.32 14.34 5.64 14 7 C7.07 6.505 7.07 6.505 0 6 C0 4.02 0 2.04 0 0 Z " fill="#394A99" transform="translate(255,182)"/>
<path d="M0 0 C0.33 0.66 0.66 1.32 1 2 C4.27555608 2.47001033 4.27555608 2.47001033 8.0625 2.625 C9.99802734 2.73714844 9.99802734 2.73714844 11.97265625 2.8515625 C13.47119141 2.92503906 13.47119141 2.92503906 15 3 C15 3.99 15 4.98 15 6 C10.05 6.33 5.1 6.66 0 7 C0 4.69 0 2.38 0 0 Z " fill="#3C4C98" transform="translate(15,161)"/>
<path d="M0 0 C1.32 0.33 2.64 0.66 4 1 C3.34 2.98 2.68 4.96 2 7 C3.32 7.33 4.64 7.66 6 8 C5.01 8.495 5.01 8.495 4 9 C3.01 8.67 2.02 8.34 1 8 C0.67 9.98 0.34 11.96 0 14 C-0.99 14 -1.98 14 -3 14 C-2.48594831 9.03083364 -1.76615118 4.70973649 0 0 Z " fill="#394999" transform="translate(113,315)"/>
<path d="M0 0 C0.84026396 1.76755526 1.67198722 3.53917263 2.5 5.3125 C2.9640625 6.29863281 3.428125 7.28476562 3.90625 8.30078125 C5 11 5 11 5 14 C4.01 14.33 3.02 14.66 2 15 C1.47599609 13.73542969 1.47599609 13.73542969 0.94140625 12.4453125 C0.48636719 11.34960938 0.03132812 10.25390625 -0.4375 9.125 C-0.88996094 8.03445313 -1.34242188 6.94390625 -1.80859375 5.8203125 C-2.49543463 4.19441376 -3.21065887 2.57868226 -4 1 C-2 0 -2 0 0 0 Z " fill="#3C4B99" transform="translate(177,312)"/>
<path d="M0 0 C2.475 0.99 2.475 0.99 5 2 C5 3.32 5 4.64 5 6 C5.99 6.66 6.98 7.32 8 8 C7.67 9.65 7.34 11.3 7 13 C4 12 4 12 2.83203125 10.0390625 C2.49558594 9.24242187 2.15914062 8.44578125 1.8125 7.625 C1.46832031 6.83351563 1.12414062 6.04203125 0.76953125 5.2265625 C0 3 0 3 0 0 Z " fill="#D6B74F" transform="translate(177,311)"/>
<path d="M0 0 C2.375 0.3125 2.375 0.3125 5 1 C7 4 7 4 6.875 7.5625 C6.441875 9.2640625 6.441875 9.2640625 6 11 C3.9453125 12.21484375 3.9453125 12.21484375 2 13 C2.02320313 12.31292969 2.04640625 11.62585938 2.0703125 10.91796875 C2.08835938 10.01691406 2.10640625 9.11585938 2.125 8.1875 C2.14820313 7.29417969 2.17140625 6.40085937 2.1953125 5.48046875 C2.18285827 2.74597286 2.18285827 2.74597286 0 0 Z " fill="#3E4D98" transform="translate(150,319)"/>
<path d="M0 0 C1.32 0 2.64 0 4 0 C4.33 4.62 4.66 9.24 5 14 C4.01 14 3.02 14 2 14 C1.66576139 11.85430749 1.33263257 9.70844207 1 7.5625 C0.814375 6.36753906 0.62875 5.17257812 0.4375 3.94140625 C0 1 0 1 0 0 Z " fill="#34469A" transform="translate(143,319)"/>
<path d="M0 0 C1 3 1 3 -0.58203125 6.5390625 C-1.31507119 7.90669419 -2.0590375 9.26851252 -2.8125 10.625 C-3.36647461 11.66527344 -3.36647461 11.66527344 -3.93164062 12.7265625 C-6.72542547 17.86271273 -6.72542547 17.86271273 -9 19 C-8.42334609 14.2128572 -6.35917004 10.74871176 -3.9375 6.6875 C-3.56044922 6.04232422 -3.18339844 5.39714844 -2.79492188 4.73242188 C-1.86962507 3.15121848 -0.93567319 1.5750854 0 0 Z " fill="#4555A3" transform="translate(228,239)"/>
<path d="M0 0 C2.49551158 2.49551158 3.07575992 4.66076626 4.1875 8 C4.55230469 9.0725 4.91710937 10.145 5.29296875 11.25 C6 14 6 14 5 16 C4.34 16 3.68 16 3 16 C2.29954544 14.08802961 1.615081 12.17019565 0.9375 10.25 C0.55464844 9.18265625 0.17179688 8.1153125 -0.22265625 7.015625 C-0.98010011 4.07719958 -1.07151741 2.77651052 0 0 Z " fill="#4F5996" transform="translate(238,112)"/>
<path d="M0 0 C-4.455 3.465 -4.455 3.465 -9 7 C-9.66 6.67 -10.32 6.34 -11 6 C-10.67 4.35 -10.34 2.7 -10 1 C-3.375 -1.125 -3.375 -1.125 0 0 Z " fill="#E4C241" transform="translate(232,66)"/>
<path d="M0 0 C3.68069887 1.53643852 5.98775204 3.78150945 8.75 6.625 C9.54921875 7.44226563 10.3484375 8.25953125 11.171875 9.1015625 C12.07679688 10.04128906 12.07679688 10.04128906 13 11 C12.34 11.66 11.68 12.32 11 13 C9.16052663 11.21427748 7.32842259 9.42197551 5.5 7.625 C4.71302734 6.86316406 4.71302734 6.86316406 3.91015625 6.0859375 C2.56846819 4.76167396 1.28004185 3.38394135 0 2 C0 1.34 0 0.68 0 0 Z " fill="#5462A8" transform="translate(198,67)"/>
<path d="M0 0 C5 2 5 2 6.14453125 4.3828125 C6.36496094 5.28773437 6.58539063 6.19265625 6.8125 7.125 C7.04582031 8.03507812 7.27914062 8.94515625 7.51953125 9.8828125 C7.67808594 10.58148438 7.83664063 11.28015625 8 12 C6.35 11.67 4.7 11.34 3 11 C2.01 7.37 1.02 3.74 0 0 Z " fill="#4A5595" transform="translate(175,27)"/>
<path d="M0 0 C3.63 0.66 7.26 1.32 11 2 C11 2.66 11 3.32 11 4 C9.4375 5.1875 9.4375 5.1875 7 6 C3.25 4.625 3.25 4.625 0 3 C0 2.01 0 1.02 0 0 Z " fill="#3B4B99" transform="translate(209,298)"/>
<path d="M0 0 C3.45201639 1.47721422 5.64961936 3.43794001 8.25 6.125 C8.95640625 6.84945313 9.6628125 7.57390625 10.390625 8.3203125 C11.18726562 9.15175781 11.18726562 9.15175781 12 10 C11.34 10.66 10.68 11.32 10 12 C8.32737283 10.38113585 6.66204463 8.7547271 5 7.125 C4.071875 6.22007812 3.14375 5.31515625 2.1875 4.3828125 C0 2 0 2 0 0 Z " fill="#5462A8" transform="translate(79,273)"/>
<path d="M0 0 C0.66 0 1.32 0 2 0 C2.99 3.96 3.98 7.92 5 12 C4.01 12 3.02 12 2 12 C0.40861915 7.82262526 -0.21278058 4.46839215 0 0 Z " fill="#55609F" transform="translate(41,213)"/>
<path d="M0 0 C1.65 0.99 3.3 1.98 5 3 C4.34 4.98 3.68 6.96 3 9 C3.66 9.66 4.32 10.32 5 11 C3.02 11.99 3.02 11.99 1 13 C0.67 8.71 0.34 4.42 0 0 Z " fill="#A89470" transform="translate(192,308)"/>
<path d="M0 0 C1.26823485 3.65393537 0.75715321 6.49070026 0.0625 10.25 C-0.13214844 11.32765625 -0.32679687 12.4053125 -0.52734375 13.515625 C-0.68332031 14.33546875 -0.83929688 15.1553125 -1 16 C-3 14 -3 14 -3.046875 10.99609375 C-2.94890625 9.82175781 -2.8509375 8.64742187 -2.75 7.4375 C-2.66234375 6.26058594 -2.5746875 5.08367187 -2.484375 3.87109375 C-2.32453125 2.92363281 -2.1646875 1.97617188 -2 1 C-1.34 0.67 -0.68 0.34 0 0 Z " fill="#606DAE" transform="translate(47,145)"/>
<path d="M0 0 C1.2065625 0.0309375 1.2065625 0.0309375 2.4375 0.0625 C3.03482819 2.82514289 3.4375 5.22282769 3.4375 8.0625 C2.1175 7.7325 0.7975 7.4025 -0.5625 7.0625 C-0.5625 5.7425 -0.5625 4.4225 -0.5625 3.0625 C-1.5525 2.4025 -2.5425 1.7425 -3.5625 1.0625 C-2.5625 0.0625 -2.5625 0.0625 0 0 Z " fill="#475296" transform="translate(181.5625,309.9375)"/>
<path d="M0 0 C2.64 0.33 5.28 0.66 8 1 C8 1.66 8 2.32 8 3 C8.99 3.33 9.98 3.66 11 4 C9.35 5.32 7.7 6.64 6 8 C5.67 6.02 5.34 4.04 5 2 C3.35 2 1.7 2 0 2 C0 1.34 0 0.68 0 0 Z " fill="#A7946D" transform="translate(248,122)"/>
<path d="M0 0 C0.66 0.33 1.32 0.66 2 1 C0.40207236 2.65189143 -1.20355876 4.2963339 -2.8125 5.9375 C-3.70582031 6.85402344 -4.59914062 7.77054687 -5.51953125 8.71484375 C-8 11 -8 11 -11 12 C-9.49650623 8.33213607 -7.36271208 6.31089607 -4.375 3.75 C-3.14910156 2.69039063 -3.14910156 2.69039063 -1.8984375 1.609375 C-1.27195313 1.07828125 -0.64546875 0.5471875 0 0 Z " fill="#3F50A1" transform="translate(205,274)"/>
<path d="M0 0 C0.66 0 1.32 0 2 0 C1.79375 0.5775 1.5875 1.155 1.375 1.75 C0.91338739 4.51967567 1.57055055 5.64561267 3 8 C0.03 7.505 0.03 7.505 -3 7 C-2.25 2.25 -2.25 2.25 0 0 Z " fill="#E0BF46" transform="translate(26,117)"/>
<path d="M0 0 C2.0625 0.4375 2.0625 0.4375 4 1 C4.33 2.65 4.66 4.3 5 6 C2.36 5.67 -0.28 5.34 -3 5 C-1.125 1.125 -1.125 1.125 0 0 Z " fill="#4B5595" transform="translate(33,95)"/>
<path d="M0 0 C1.98 0.495 1.98 0.495 4 1 C4 2.65 4 4.3 4 6 C2.68 6.33 1.36 6.66 0 7 C-0.93423645 3.98968256 -1.04449911 3.13349732 0 0 Z " fill="#E4C240" transform="translate(177,22)"/>
<path d="M0 0 C0 1.32 0 2.64 0 4 C-2.97 3.505 -2.97 3.505 -6 3 C-6.33 2.01 -6.66 1.02 -7 0 C-4.3333581 -1.33332095 -2.83319697 -0.67102033 0 0 Z " fill="#E4C23E" transform="translate(36,100)"/>
<path d="M0 0 C0.66 0.33 1.32 0.66 2 1 C1.34 2.98 0.68 4.96 0 7 C-1.98 6.34 -3.96 5.68 -6 5 C-2.25 1.125 -2.25 1.125 0 0 Z " fill="#B09A6A" transform="translate(197,36)"/>
<path d="M0 0 C1.98 0.495 1.98 0.495 4 1 C3.67 2.65 3.34 4.3 3 6 C1.68 6 0.36 6 -1 6 C-0.67 4.02 -0.34 2.04 0 0 Z " fill="#DFBE46" transform="translate(114,323)"/>
<path d="M0 0 C0.66 0.33 1.32 0.66 2 1 C0.515 6.445 0.515 6.445 -1 12 C-0.34 12.33 0.32 12.66 1 13 C0.01 13.33 -0.98 13.66 -2 14 C-2.125 7.375 -2.125 7.375 -1 4 C-1.66 3.67 -2.32 3.34 -3 3 C-2.01 2.01 -1.02 1.02 0 0 Z " fill="#8F8181" transform="translate(210,289)"/>
<path d="M0 0 C0.33 0 0.66 0 1 0 C0.88570603 1.77155654 0.75816963 3.54226229 0.625 5.3125 C0.52058594 6.79169922 0.52058594 6.79169922 0.4140625 8.30078125 C0 11 0 11 -2 14 C-2.05437607 12.41705218 -2.09296271 10.83355744 -2.125 9.25 C-2.14820313 8.36828125 -2.17140625 7.4865625 -2.1953125 6.578125 C-1.99139502 3.8864142 -1.36551721 2.30095026 0 0 Z " fill="#3A4B99" transform="translate(40,140)"/>
<path d="M0 0 C0.99 0.33 1.98 0.66 3 1 C1.35 3.64 -0.3 6.28 -2 9 C-2.66 8.67 -3.32 8.34 -4 8 C-2.87548273 5.0280615 -1.77706209 2.66559313 0 0 Z " fill="#525D9D" transform="translate(224,259)"/>
<path d="M0 0 C0.95904856 3.83619425 0.91892116 5.32431536 0 9 C-1.65 8.67 -3.3 8.34 -5 8 C-3.35 5.36 -1.7 2.72 0 0 Z " fill="#9E8D75" transform="translate(151,22)"/>
<path d="M0 0 C0.66 0.33 1.32 0.66 2 1 C2 2.65 2 4.3 2 6 C0.68 6.33 -0.64 6.66 -2 7 C-1.125 1.125 -1.125 1.125 0 0 Z " fill="#DCBC49" transform="translate(117,315)"/>
<path d="M0 0 C2.875 -0.1875 2.875 -0.1875 6 0 C6.66 0.99 7.32 1.98 8 3 C7.34 3 6.68 3 6 3 C5.67 3.66 5.34 4.32 5 5 C3.35 3.35 1.7 1.7 0 0 Z " fill="#E8C53F" transform="translate(209,302)"/>
<path d="M0 0 C-1.49835228 4.66154042 -4.88463591 5.86610751 -9 8 C-9 7.01 -9 6.02 -9 5 C-7.5390625 3.61328125 -7.5390625 3.61328125 -5.625 2.3125 C-4.68527344 1.65701172 -4.68527344 1.65701172 -3.7265625 0.98828125 C-2 0 -2 0 0 0 Z " fill="#4F5EA6" transform="translate(194,285)"/>
<path d="M0 0 C-3.26397448 1.8830622 -6.24438133 2.67342446 -10 3 C-10.66 2.34 -11.32 1.68 -12 1 C-7.53763531 -0.80619523 -4.68965706 -1.11658501 0 0 Z " fill="#5F6BAD" transform="translate(129,47)"/>
<path d="M0 0 C-1.49097658 3.7952131 -3.75700849 5.61042731 -7 8 C-7 5 -7 5 -4.625 2.3125 C-2 0 -2 0 0 0 Z " fill="#3B4A9B" transform="translate(212,278)"/>
<path d="M0 0 C3.39914975 1.13304992 4.05254451 2.12518475 6 5 C4.35 5.33 2.7 5.66 1 6 C0 1.125 0 1.125 0 0 Z " fill="#B8A064" transform="translate(257,200)"/>
<path d="M0 0 C0.99 0.33 1.98 0.66 3 1 C2.1875 4.4375 2.1875 4.4375 1 8 C0.01 8.33 -0.98 8.66 -2 9 C-1.34 6.03 -0.68 3.06 0 0 Z " fill="#5661A1" transform="translate(241,220)"/>
<path d="M0 0 C2 2 2 2 2.125 5.625 C2.08375 6.73875 2.0425 7.8525 2 9 C1.01 8.67 0.02 8.34 -1 8 C-0.67 5.36 -0.34 2.72 0 0 Z " fill="#646894" transform="translate(248,184)"/>
<path d="M0 0 C-0.33 0.66 -0.66 1.32 -1 2 C-3.64 2 -6.28 2 -9 2 C-8 0 -8 0 -6.1875 -0.6875 C-3.81180233 -1.02688538 -2.26664171 -0.72856341 0 0 Z " fill="#4F5897" transform="translate(132,39)"/>
<path d="M0 0 C0.99 0 1.98 0 3 0 C2.67 1.65 2.34 3.3 2 5 C1.01 4.67 0.02 4.34 -1 4 C-0.67 2.68 -0.34 1.36 0 0 Z " fill="#ECC837" transform="translate(182,319)"/>
<path d="M0 0 C2 2 2 2 2 6 C0.68 5.67 -0.64 5.34 -2 5 C-1.34 3.35 -0.68 1.7 0 0 Z " fill="#CDB059" transform="translate(153,21)"/>
</svg>
