<?xml version="1.0" encoding="UTF-8"?>
<svg version="1.1" xmlns="http://www.w3.org/2000/svg" width="200" height="100">
<path d="M0 0 C66 0 132 0 200 0 C200 33 200 66 200 100 C134 100 68 100 0 100 C0 67 0 34 0 0 Z " fill="#FCFDFE" transform="translate(0,0)"/>
<path d="M0 0 C26 0 26 0 32 4 C36.69743819 9.30031795 36.53027203 15.96789028 36.328125 22.7109375 C35.83024889 27.70155281 34.61822407 30.99340216 31.4375 34.9375 C30 36 30 36 28 36 C28 36.66 28 37.32 28 38 C29.11375 38.2784375 29.11375 38.2784375 30.25 38.5625 C33.98190597 40.51326903 35.51207892 43.17986339 37 47 C37.55158806 50.33163398 37.56068333 53.56704646 37.5 56.9375 C37.51546875 57.79279297 37.5309375 58.64808594 37.546875 59.52929688 C37.51120925 65.37402145 36.52547587 70.21986318 33 75 C23.02246719 82.85675294 13.28312724 80 0 80 C0 53.6 0 27.2 0 0 Z " fill="#465AA7" transform="translate(53,11)"/>
<path d="M0 0 C4.29 0 8.58 0 13 0 C15.08507229 8.06910922 16.8620862 16.11896685 18.375 24.3125 C20.685836 36.59467821 23.27434764 48.80380123 26 61 C26.15033691 60.21802246 26.30067383 59.43604492 26.45556641 58.63037109 C30.21975422 39.06968236 34.06932858 19.52791012 38 0 C42.29 0 46.58 0 51 0 C51 26.4 51 52.8 51 80 C48.03 80 45.06 80 42 80 C41.67 61.52 41.34 43.04 41 24 C37.75074894 41.35168197 37.75074894 41.35168197 34.50805664 58.70458984 C34.10066176 60.87341722 33.69304373 63.04220271 33.28515625 65.2109375 C33.07435425 66.3450708 32.86355225 67.4792041 32.6463623 68.64770508 C32.44345581 69.7235083 32.24054932 70.79931152 32.03149414 71.90771484 C31.85606583 72.84481293 31.68063751 73.78191101 31.49989319 74.74740601 C31 77 31 77 30 79 C27.03 79 24.06 79 21 79 C18.16197552 68.42190875 16.12432975 57.74660934 14 47 C12.35 39.08 10.7 31.16 9 23 C8.67 41.81 8.34 60.62 8 80 C5.36 80 2.72 80 0 80 C0 53.6 0 27.2 0 0 Z " fill="#465AA7" transform="translate(139,11)"/>
<path d="M0 0 C4.89750613 1.88447519 7.17965997 4.93950145 9.95703125 9.1796875 C11.24936151 12.50841697 11.07069395 15.74138894 10.984375 19.25390625 C10.97535156 19.95128906 10.96632812 20.64867188 10.95703125 21.3671875 C10.93357388 23.07957583 10.89770604 24.79178629 10.859375 26.50390625 C8.219375 26.50390625 5.579375 26.50390625 2.859375 26.50390625 C2.82199219 25.69566406 2.78460938 24.88742188 2.74609375 24.0546875 C2.68035156 22.98605469 2.61460938 21.91742188 2.546875 20.81640625 C2.48886719 19.76066406 2.43085937 18.70492188 2.37109375 17.6171875 C1.81580603 14.23883394 0.8667225 12.25471579 -1.140625 9.50390625 C-4.19755822 7.97543964 -6.77047047 8.2714818 -10.140625 8.50390625 C-13.3256607 10.26405756 -13.97359472 11.00281541 -15.140625 14.50390625 C-15.24272212 16.14924053 -15.28902905 17.79832756 -15.30175781 19.44677734 C-15.31616913 20.95381729 -15.31616913 20.95381729 -15.33087158 22.49130249 C-15.33512146 23.57569611 -15.33937134 24.66008972 -15.34375 25.77734375 C-15.34945007 26.89323883 -15.35515015 28.00913391 -15.36102295 29.15884399 C-15.37047334 31.52092541 -15.37700708 33.88302001 -15.38085938 36.24511719 C-15.39056789 39.85765576 -15.42159282 43.46962616 -15.453125 47.08203125 C-15.45965481 49.3762987 -15.46490537 51.67057023 -15.46875 53.96484375 C-15.4810968 55.0451889 -15.4934436 56.12553406 -15.50616455 57.23861694 C-15.48903657 63.00862023 -15.43921679 67.20531446 -11.140625 71.50390625 C-5.69006529 71.95362898 -5.69006529 71.95362898 -0.703125 70.19140625 C2.50976268 66.72148756 2.16688454 62.29336986 2.421875 57.81640625 C2.46505859 57.11451172 2.50824219 56.41261719 2.55273438 55.68945312 C2.6585486 53.96115419 2.75944081 52.23255515 2.859375 50.50390625 C5.499375 50.50390625 8.139375 50.50390625 10.859375 50.50390625 C11.77308668 69.50910924 11.77308668 69.50910924 7.2265625 75.16015625 C2.96375834 79.34988377 -0.40798574 80.65363855 -6.390625 80.75390625 C-11.50254956 80.68637752 -14.76693373 80.18167642 -19.140625 77.50390625 C-25.17559081 70.16408296 -25.45782145 62.92990807 -25.4765625 53.82421875 C-25.4832193 52.69748749 -25.4898761 51.57075623 -25.49673462 50.40988159 C-25.50683983 48.03124621 -25.5115523 45.6525826 -25.51123047 43.27392578 C-25.51560164 39.64828468 -25.55194045 36.02386331 -25.58984375 32.3984375 C-25.59571283 30.08203539 -25.59968161 27.76562753 -25.6015625 25.44921875 C-25.61593353 24.37189484 -25.63030457 23.29457092 -25.64511108 22.18460083 C-25.60244829 15.10488103 -24.73464359 9.18418302 -19.62240601 3.94924927 C-13.6899014 -1.15643878 -7.60494703 -1.76246035 0 0 Z " fill="#4358A6" transform="translate(34.140625,10.49609375)"/>
<path d="M0 0 C12.54 0 25.08 0 38 0 C38 2.64 38 5.28 38 8 C33.38 8 28.76 8 24 8 C24 31.76 24 55.52 24 80 C21.03 80 18.06 80 15 80 C15 56.24 15 32.48 15 8 C10.05 8 5.1 8 0 8 C0 5.36 0 2.72 0 0 Z " fill="#465AA7" transform="translate(95,11)"/>
<path d="M0 0 C13 0 13 0 18 3 C19.68156955 6.36313909 19.22674377 10.11766587 19.25 13.8125 C19.270625 14.62009766 19.29125 15.42769531 19.3125 16.25976562 C19.34337544 20.97213021 19.17501269 24.24576202 16 28 C12 30 12 30 0 30 C0 20.1 0 10.2 0 0 Z " fill="#F7F8FB" transform="translate(62,53)"/>
<path d="M0 0 C13 0 13 0 16.2734375 2.03125 C18.43681345 5.75108195 18.6679211 8.20788979 18.625 12.5 C18.63789062 13.7890625 18.65078125 15.078125 18.6640625 16.40625 C17.85113604 20.8056167 16.46615628 22.25979386 13 25 C10 26 10 26 0 26 C0 17.42 0 8.84 0 0 Z " fill="#F6F7FB" transform="translate(62,19)"/>
</svg>
